<svg xmlns="http://www.w3.org/2000/svg" viewBox="0 0 400 400" width="1200" height="1200"><defs><filter id="ink" x="-10%" y="-10%" width="120%" height="120%"><feTurbulence type="fractalNoise" baseFrequency="0.045" numOctaves="2" seed="13" result="n"/><feDisplacementMap in="SourceGraphic" in2="n" scale="5" xChannelSelector="R" yChannelSelector="G"/></filter></defs><g filter="url(#ink)"><g transform="translate(200 366) scale(0.8) translate(-240 -366)"><g transform="translate(-50,0) rotate(0 200 240)"><path fill="none" stroke="#000" stroke-width="18" stroke-linejoin="round" stroke-linecap="round" d="M200 62 C268 60 312 128 318 222 C324 318 284 362 200 364 C116 362 76 318 82 222 C88 128 132 60 200 62 Z"/><path fill="none" stroke="#000" stroke-width="18" stroke-linejoin="round" stroke-linecap="round" transform="translate(96,180.0) scale(1,1) rotate(10) scale(1,1.000)" d="M0 0 C-26 18 -40 70 -34 118 C-16 104 4 66 10 22 Z"/><path fill="none" stroke="#000" stroke-width="18" stroke-linejoin="round" stroke-linecap="round" d="M146 356 C132 374 150 384 188 372 C184 362 170 356 146 356 Z"/><path fill="none" stroke="#000" stroke-width="18" stroke-linejoin="round" stroke-linecap="round" d="M254 356 C268 374 250 384 212 372 C216 362 230 356 254 356 Z"/><path fill="none" stroke="#000" stroke-width="18" stroke-linejoin="round" stroke-linecap="round" d="M184 66 C176 40 186 28 196 22 C196 38 200 48 206 58 C210 42 222 34 234 36 C224 46 220 58 218 70"/><path fill="#000" stroke="#fff" stroke-width="5" stroke-linejoin="round" stroke-linecap="round" d="M146 356 C132 374 150 384 188 372 C184 362 170 356 146 356 Z"/><path fill="#000" stroke="#fff" stroke-width="5" stroke-linejoin="round" stroke-linecap="round" d="M254 356 C268 374 250 384 212 372 C216 362 230 356 254 356 Z"/><path fill="#000" stroke="#fff" stroke-width="5" stroke-linejoin="round" stroke-linecap="round" transform="translate(96,180.0) scale(1,1) rotate(10) scale(1,1.000)" d="M0 0 C-26 18 -40 70 -34 118 C-16 104 4 66 10 22 Z"/><path fill="#000" stroke="#fff" stroke-width="5" stroke-linejoin="round" stroke-linecap="round" d="M200 62 C268 60 312 128 318 222 C324 318 284 362 200 364 C116 362 76 318 82 222 C88 128 132 60 200 62 Z"/><path fill="none" stroke="#000" stroke-width="14" stroke-linejoin="round" stroke-linecap="round" d="M184 66 C176 40 186 28 196 22 C196 38 200 48 206 58 C210 42 222 34 234 36 C224 46 220 58 218 70"/><path fill="none" stroke="#fff" stroke-width="5" stroke-linejoin="round" stroke-linecap="round" d="M184 66 C176 40 186 28 196 22 C196 38 200 48 206 58 C210 42 222 34 234 36 C224 46 220 58 218 70"/><path fill="#fff" stroke="none" d="M200 188 C246 188 270 236 268 288 C266 334 238 350 200 350 C162 350 134 334 132 288 C130 236 154 188 200 188 Z"/><circle fill="#fff" stroke="none" cx="164" cy="138" r="22"/><circle cx="172" cy="147" r="9" fill="#000"/><circle fill="#fff" stroke="none" cx="236" cy="138" r="22"/><circle cx="244" cy="147" r="9" fill="#000"/><path d="M187 161 C193 156 207 156 213 161 C210 166 205 172 200 177 C195 172 190 166 187 161 Z" fill="#000" stroke="#000" stroke-linejoin="round" stroke-width="9"/><path fill="#fff" stroke="none" d="M187 161 C193 156 207 156 213 161 C210 166 205 172 200 177 C195 172 190 166 187 161 Z"/><g transform="translate(200,96) scale(0.2) translate(-100,-100)"><clipPath id="gcfNone34"><circle cx="100" cy="100" r="64"/></clipPath><g fill="#fff" clip-path="url(#gcfNone34)"><path d="M139.0 73.7 A47 47 0 1 0 141.5 122.1" fill="none" stroke="#fff" stroke-width="34"/><rect x="98" y="92" width="66" height="24"/><rect x="130" y="92" width="34" height="60"/></g></g><path fill="none" stroke="#000" stroke-width="18" stroke-linejoin="round" stroke-linecap="round" d="M330 120 L474 120 L474 372 L330 372 Z"/><path fill="#000" stroke="#fff" stroke-width="5" stroke-linejoin="round" stroke-linecap="round" d="M330 120 L474 120 L474 372 L330 372 Z"/><path fill="none" stroke="#fff" stroke-width="4" stroke-linejoin="round" stroke-linecap="round" d="M342 132 L462 132 L462 186 L342 186 Z"/><path fill="none" stroke="#fff" stroke-width="5" stroke-linejoin="round" stroke-linecap="round" d="M388 156 L416 156"/><path fill="none" stroke="#fff" stroke-width="4" stroke-linejoin="round" stroke-linecap="round" d="M342 262 L462 262 L462 316 L342 316 Z"/><path fill="none" stroke="#fff" stroke-width="5" stroke-linejoin="round" stroke-linecap="round" d="M388 286 L416 286"/><path fill="none" stroke="#000" stroke-width="18" stroke-linejoin="round" stroke-linecap="round" d="M332 196 L472 196 L483.9 218.2 L320.1 218.2 Z"/><path d="M332 196 L472 196 L483.9 218.2 L320.1 218.2 Z" fill="#000" stroke="#fff" stroke-width="4"/><path fill="none" stroke="#000" stroke-width="10" stroke-linejoin="round" stroke-linecap="round" d="M336 198.7 L333.2 198.7 L337.2 188.7 L353.2 188.7 L357.2 198.7 L380 198.7 L380 220.2 L336 220.2 Z"/><path d="M336 198.7 L333.2 198.7 L337.2 188.7 L353.2 188.7 L357.2 198.7 L380 198.7 L380 220.2 L336 220.2 Z" fill="#fff" stroke="#000" stroke-width="3"/><path fill="none" stroke="#000" stroke-width="10" stroke-linejoin="round" stroke-linecap="round" d="M428 200.0 L442.8 200.0 L446.8 190.0 L462.8 190.0 L466.8 200.0 L472 200.0 L472 220.2 L428 220.2 Z"/><path d="M428 200.0 L442.8 200.0 L446.8 190.0 L462.8 190.0 L466.8 200.0 L472 200.0 L472 220.2 L428 220.2 Z" fill="#fff" stroke="#000" stroke-width="3"/><path fill="none" stroke="#000" stroke-width="18" stroke-linejoin="round" stroke-linecap="round" d="M318.1 218.2 L485.9 218.2 L485.9 262.2 L318.1 262.2 Z"/><path fill="#000" stroke="#fff" stroke-width="5" stroke-linejoin="round" stroke-linecap="round" d="M318.1 218.2 L485.9 218.2 L485.9 262.2 L318.1 262.2 Z"/><path fill="none" stroke="#fff" stroke-width="5" stroke-linejoin="round" stroke-linecap="round" d="M384 238.2 L420 238.2"/><path fill="none" stroke="#000" stroke-width="18" stroke-linejoin="round" stroke-linecap="round" transform="translate(304,180.0) scale(-1,1) rotate(58.42875631081006) scale(1,1.027)" d="M0 0 C-26 18 -40 70 -34 118 C-16 104 4 66 10 22 Z"/><path fill="#000" stroke="#fff" stroke-width="5" stroke-linejoin="round" stroke-linecap="round" transform="translate(304,180.0) scale(-1,1) rotate(58.42875631081006) scale(1,1.027)" d="M0 0 C-26 18 -40 70 -34 118 C-16 104 4 66 10 22 Z"/></g></g></g></svg>